<?xml version="1.0" encoding="utf-8"?>
<!-- Generator: Adobe Illustrator 19.2.0, SVG Export Plug-In . SVG Version: 6.00 Build 0)  -->
<svg version="1.1" id="Layer_1" xmlns="http://www.w3.org/2000/svg" xmlns:xlink="http://www.w3.org/1999/xlink" x="0px" y="0px"
	 viewBox="0 0 55 58" style="enable-background:new 0 0 55 58;" xml:space="preserve">
<style type="text/css">
	.st0{fill:#D4A436;}
	.st1{fill:#F6EEDC;}
	.st2{fill:#E2D7BD;}
	.st3{fill:#D88430;}
	.st4{fill:#EB9F42;}
	.st5{fill:#EAB96C;}
</style>
<path class="st0" d="M44.5,52.1c0,3.3-9,5.8-20.7,6c-11.6,0.5-20.6-2-20.8-5.3c-0.1-1.3,9.2-2.8,20.6-3.3
	C35.2,49.4,44.6,50.7,44.5,52.1z"/>
<path class="st1" d="M43.6,42.8c-3.5,0.6-6.8,1-10,1.1c-9.8,0.3-19.6-2.1-29.4-2.8c0.1,4.6,0.3,9.4,0,10.3c-0.4,1.6,10.5,4,14.6,3.9
	c4.1,1,20.7-1.2,22.5-2.9c1.9-1.3,2.3-2.6,2.2-3.8C43.2,47.5,43.4,44.3,43.6,42.8z"/>
<path class="st2" d="M11.9,49.5c4.2,1,8.6,1.5,12.9,1.4c4.7-0.1,9.4-0.9,14-2.5c1.5-0.5,3-0.9,4.5-1.3c-0.1-1.3,0.1-4,0.2-5.4
	c-3.5,0.6-6.8,1.2-10,1.3c-9.9,0.4-19.6-2.3-29.4-3c0.1,2.6,0.1,5.1,0.1,7C6.7,48,9.2,48.9,11.9,49.5z"/>
<path class="st2" d="M7.7,42.9c0-0.6,0.1-1,0.3-1.5c-1.3-0.1-2.6-0.3-3.8-0.3c0.1,4.6,0.3,9.4,0,10.3c-0.2,0.5,1.6,1.6,4,1.2
	C7.8,49.3,7.7,46.1,7.7,42.9z"/>
<path class="st2" d="M43.3,48.5c-0.1-1,0.1-4.2,0.2-5.7c-3,0.4-6,0.6-8.9,0.6c0.1,0.2,0.1,0.3,0.1,0.5c0,2.8-0.1,5.6-0.1,8.4
	c3.2,0.8,5.9,0.2,6.6-0.2C43,51.1,43.5,49.8,43.3,48.5z"/>
<path class="st2" d="M54.6,23.5c-0.4-2.6-6-5.2-15.2-5.9c0.1,1.3,0.3,2.6,0.3,3.9c3.6,0.3,9.3,1.5,9.3,3.5c0,2.4,0.9,9.2,0,10.9
	c-0.7,1.3-7,1.5-8.5,1.5c0.2,2,0.4,4.2,0.6,6.2c0.1-0.5,0.1-0.8,0.1-0.8s1.7-0.2,6.5-1.3c4.8-1.2,6.5-6,7-9.7
	C55.1,28,55.1,26.4,54.6,23.5z"/>
<g>
	<path class="st1" d="M40.6,38c2.2-0.1,5.9-0.4,6.8-1.3c-2.2,0.6-5.8,0.6-6.9,0.7C40.5,37.6,40.5,37.8,40.6,38z"/>
	<path class="st1" d="M54.6,23.5c-0.4-2.6-6-5.2-15.2-5.9c0,0.3,0.1,0.5,0.1,0.8c8.3,0.8,13.4,3.3,13.7,5.8c0.4,2.9,0.4,4.6,0,8.3
		c-0.4,3.1-1.7,7-4.9,8.8c4.3-1.4,5.9-6,6.3-9.5C55.1,28,55.1,26.4,54.6,23.5z"/>
	<path class="st1" d="M41.1,43.2c0,0.1,0,0.3,0.1,0.4C41.2,43.5,41.2,43.3,41.1,43.2C41.2,43.2,41.2,43.2,41.1,43.2z"/>
</g>
<path class="st1" d="M47.2,38.9c-1.4,0.6-3.6,1-6.5,1c0.1,0.8,0.1,1.5,0.3,2.3c1-0.2,2.5-0.5,4.6-1c0.6-0.1,1.2-0.4,1.7-0.7
	C47.2,40,47.2,39.5,47.2,38.9z"/>
<path class="st1" d="M51.2,24.4c-0.2-1.4-4-3.6-11.7-4.5c0,0.3,0.1,0.6,0.1,1c3.1,0.4,9.4,1.6,9.4,4.7c0,0.6,0.1,1.7,0.1,2.9
	c0.1,0.9,0.1,1.7,0.1,2.6c0.3,2.1,0.3,4.3,0.3,6.4c1-1.9,1.4-3.9,1.5-5.1C51.7,28.7,51.7,27.1,51.2,24.4z"/>
<path class="st2" d="M26.2,43.4c0-0.1,0-0.2,0.1-0.3c-2.2-0.1-4.5-0.4-6.8-0.6c0,0.1,0,0.2,0,0.3c0,3.3,0.1,6.6,0.2,9.9
	c1.5,0.4,4,0.6,6.5-0.1C26.3,49.6,26.3,46.6,26.2,43.4z"/>
<path class="st3" d="M43,11.2h-1.9c0.1,1,0.1,2,0.1,3.1c0,4.1-0.7,8.2-0.5,12.2c0.3,7.1,0.3,13.3,0.3,20.1c0.4,0,0.9,0,1.3,0
	c0.3-0.1,0.6-0.1,0.9-0.1c0.1-0.1,0.1-0.2,0.1-0.3C43.4,34.3,43.4,15.7,43,11.2z"/>
<g>
	<path class="st4" d="M3.7,11.2c0,0,0.5,14,0.3,18.9c-0.2,4,0.1,10.9,0.1,14.7c1.1,3.1,10.2,4.7,10.6,4.5c6.5,1,13.1,0.1,19.6-0.8
		c2.8-0.4,5.5-1.1,8.2-1.8c0.3-0.1,0.6-0.3,1-0.4c0.1-0.1,0.1-0.3,0.1-0.4c-0.1-11.8-0.3-30.4-0.6-34.9
		C29.8,11.2,16.7,11.2,3.7,11.2L3.7,11.2z"/>
	<path class="st3" d="M33.3,47.8c8.4-1.7,6.7-9.8,6.8-12.1c0.3-8,0.3-16.2,0.5-24.5c0.8,0,1.7,0,2.4,0c0,0-0.4,14.1-0.3,19
		c0.2,4-0.2,12.3-0.1,16.1c-1.3,0.4-2.6,0.8-4,1.3C38.8,46.6,33.3,48.9,33.3,47.8z"/>
</g>
<path class="st5" d="M16.5,14.6c-2.3-0.1-4.5-0.1-6.8-0.3c-0.5,9.1,0.3,23.9,0.8,31.2c2.2,0.8,7.4,2,6.8,0
	C16.7,44.2,16.9,17.5,16.5,14.6z"/>
<path class="st5" d="M30.2,11.7c-1.5,0.2-2.9,0.4-4.4,0.5c-0.6,10.4,0.5,26.6,0.6,33.9c1.5,0.3,3,0.3,4.5,0
	C31.1,41.8,30.5,14.1,30.2,11.7z"/>
<g id="foam">
	<path class="st1" d="M28.8,13c4.4-0.4,13.3-0.6,13.5,1.3c0.3,2.4,3,3.5,3.1,1.5c0.1-2.3,2.6-7-7.6-10.7c-10.3-2.7-8.6-1.7-14.1-2
		c-5.6,0.1-2.9-5.7-13.9-1c-10.7,5.8-11,12-6.1,12.7C8.8,15,12.1,17,16.4,17C20.6,16.9,25,13.2,28.8,13z"/>
	<path class="st2" d="M43,14.3c-0.3-0.7-0.5-2.6-1.3-3.4c-2.3-2.3-6-3.5-9.3-3.7c-4.7-0.6-9.3,0.3-14,1.9c-4.1,1.4-8.3,2.2-12.2,0.9
		C4.5,9.4,3.2,8.4,2.4,7.1c-2.9,4.3-2,6.8,1.3,7.3c5.1-0.1,8.4,2.2,12.7,2.1c4.3-0.1,8.7-4.4,12.4-4.5c4.4-0.3,13.2,0.5,13.4,2.2
		c0.1,0.8,0.6,1.5,1.2,1.9C43.3,15.5,43.2,14.9,43,14.3z"/>
</g>
<path class="st0" d="M44.5,52.1c0,3.3-9,5.8-20.7,6c-11.6,0.5-20.6-2-20.8-5.3c-0.1-1.3,9.2-2.8,20.6-3.3
	C35.2,49.4,44.6,50.7,44.5,52.1z"/>
<path class="st1" d="M43.6,42.8c-3.5,0.6-6.8,1-10,1.1c-9.8,0.3-19.6-2.1-29.4-2.8c0.1,4.6,0.3,9.4,0,10.3c-0.4,1.6,10.5,4,14.6,3.9
	c4.1,1,20.7-1.2,22.5-2.9c1.9-1.3,2.3-2.6,2.2-3.8C43.2,47.5,43.4,44.3,43.6,42.8z"/>
<path class="st2" d="M11.9,49.5c4.2,1,8.6,1.5,12.9,1.4c4.7-0.1,9.4-0.9,14-2.5c1.5-0.5,3-0.9,4.5-1.3c-0.1-1.3,0.1-4,0.2-5.4
	c-3.5,0.6-6.8,1.2-10,1.3c-9.9,0.4-19.6-2.3-29.4-3c0.1,2.6,0.1,5.1,0.1,7C6.7,48,9.2,48.9,11.9,49.5z"/>
<path class="st2" d="M7.7,42.9c0-0.6,0.1-1,0.3-1.5c-1.3-0.1-2.6-0.3-3.8-0.3c0.1,4.6,0.3,9.4,0,10.3c-0.2,0.5,1.6,1.6,4,1.2
	C7.8,49.3,7.7,46.1,7.7,42.9z"/>
<path class="st2" d="M43.3,48.5c-0.1-1,0.1-4.2,0.2-5.7c-3,0.4-6,0.6-8.9,0.6c0.1,0.2,0.1,0.3,0.1,0.5c0,2.8-0.1,5.6-0.1,8.4
	c3.2,0.8,5.9,0.2,6.6-0.2C43,51.1,43.5,49.8,43.3,48.5z"/>
<path class="st2" d="M54.6,23.5c-0.4-2.6-6-5.2-15.2-5.9c0.1,1.3,0.3,2.6,0.3,3.9c3.6,0.3,9.3,1.5,9.3,3.5c0,2.4,0.9,9.2,0,10.9
	c-0.7,1.3-7,1.5-8.5,1.5c0.2,2,0.4,4.2,0.6,6.2c0.1-0.5,0.1-0.8,0.1-0.8s1.7-0.2,6.5-1.3c4.8-1.2,6.5-6,7-9.7
	C55.1,28,55.1,26.4,54.6,23.5z"/>
<g>
	<path class="st1" d="M40.6,38c2.2-0.1,5.9-0.4,6.8-1.3c-2.2,0.6-5.8,0.6-6.9,0.7C40.5,37.6,40.5,37.8,40.6,38z"/>
	<path class="st1" d="M54.6,23.5c-0.4-2.6-6-5.2-15.2-5.9c0,0.3,0.1,0.5,0.1,0.8c8.3,0.8,13.4,3.3,13.7,5.8c0.4,2.9,0.4,4.6,0,8.3
		c-0.4,3.1-1.7,7-4.9,8.8c4.3-1.4,5.9-6,6.3-9.5C55.1,28,55.1,26.4,54.6,23.5z"/>
	<path class="st1" d="M41.1,43.2c0,0.1,0,0.3,0.1,0.4C41.2,43.5,41.2,43.3,41.1,43.2C41.2,43.2,41.2,43.2,41.1,43.2z"/>
</g>
<path class="st1" d="M47.2,38.9c-1.4,0.6-3.6,1-6.5,1c0.1,0.8,0.1,1.5,0.3,2.3c1-0.2,2.5-0.5,4.6-1c0.6-0.1,1.2-0.4,1.7-0.7
	C47.2,40,47.2,39.5,47.2,38.9z"/>
<path class="st1" d="M51.2,24.4c-0.2-1.4-4-3.6-11.7-4.5c0,0.3,0.1,0.6,0.1,1c3.1,0.4,9.4,1.6,9.4,4.7c0,0.6,0.1,1.7,0.1,2.9
	c0.1,0.9,0.1,1.7,0.1,2.6c0.3,2.1,0.3,4.3,0.3,6.4c1-1.9,1.4-3.9,1.5-5.1C51.7,28.7,51.7,27.1,51.2,24.4z"/>
<path class="st2" d="M26.2,43.4c0-0.1,0-0.2,0.1-0.3c-2.2-0.1-4.5-0.4-6.8-0.6c0,0.1,0,0.2,0,0.3c0,3.3,0.1,6.6,0.2,9.9
	c1.5,0.4,4,0.6,6.5-0.1C26.3,49.6,26.3,46.6,26.2,43.4z"/>
<path class="st3" d="M43,11.2h-1.9c0.1,1,0.1,2,0.1,3.1c0,4.1-0.7,8.2-0.5,12.2c0.3,7.1,0.3,13.3,0.3,20.1c0.4,0,0.9,0,1.3,0
	c0.3-0.1,0.6-0.1,0.9-0.1c0.1-0.1,0.1-0.2,0.1-0.3C43.4,34.3,43.4,15.7,43,11.2z"/>
<g>
	<path class="st4" d="M3.7,11.2c0,0,0.5,14,0.3,18.9c-0.2,4,0.1,10.9,0.1,14.7c1.1,3.1,10.2,4.7,10.6,4.5c6.5,1,13.1,0.1,19.6-0.8
		c2.8-0.4,5.5-1.1,8.2-1.8c0.3-0.1,0.6-0.3,1-0.4c0.1-0.1,0.1-0.3,0.1-0.4c-0.1-11.8-0.3-30.4-0.6-34.9
		C29.8,11.2,16.7,11.2,3.7,11.2L3.7,11.2z"/>
	<path class="st3" d="M33.3,47.8c8.4-1.7,6.7-9.8,6.8-12.1c0.3-8,0.3-16.2,0.5-24.5c0.8,0,1.7,0,2.4,0c0,0-0.4,14.1-0.3,19
		c0.2,4-0.2,12.3-0.1,16.1c-1.3,0.4-2.6,0.8-4,1.3C38.8,46.6,33.3,48.9,33.3,47.8z"/>
</g>
<path class="st5" d="M16.5,14.6c-2.3-0.1-4.5-0.1-6.8-0.3c-0.5,9.1,0.3,23.9,0.8,31.2c2.2,0.8,7.4,2,6.8,0
	C16.7,44.2,16.9,17.5,16.5,14.6z"/>
<path class="st5" d="M30.2,11.7c-1.5,0.2-2.9,0.4-4.4,0.5c-0.6,10.4,0.5,26.6,0.6,33.9c1.5,0.3,3,0.3,4.5,0
	C31.1,41.8,30.5,14.1,30.2,11.7z"/>
<g id="foam_1_">
	<path class="st1" d="M28.8,13c4.4-0.4,13.3-0.6,13.5,1.3c0.3,2.4,3,3.5,3.1,1.5c0.1-2.3,2.6-7-7.6-10.7c-10.3-2.7-8.6-1.7-14.1-2
		c-5.6,0.1-2.9-5.7-13.9-1c-10.7,5.8-11,12-6.1,12.7C8.8,15,12.1,17,16.4,17C20.6,16.9,25,13.2,28.8,13z"/>
	<path class="st2" d="M43,14.3c-0.3-0.7-0.5-2.6-1.3-3.4c-2.3-2.3-6-3.5-9.3-3.7c-4.7-0.6-9.3,0.3-14,1.9c-4.1,1.4-8.3,2.2-12.2,0.9
		C4.5,9.4,3.2,8.4,2.4,7.1c-2.9,4.3-2,6.8,1.3,7.3c5.1-0.1,8.4,2.2,12.7,2.1c4.3-0.1,8.7-4.4,12.4-4.5c4.4-0.3,13.2,0.5,13.4,2.2
		c0.1,0.8,0.6,1.5,1.2,1.9C43.3,15.5,43.2,14.9,43,14.3z"/>
</g>
<path class="st0" d="M43.9,51.9c0,3.3-9,5.8-20.7,6c-11.6,0.5-20.6-2-20.8-5.3c-0.1-1.3,9.2-2.8,20.6-3.3
	C34.6,49.2,43.9,50.5,43.9,51.9z"/>
<path class="st1" d="M42.9,42.6c-3.5,0.6-6.8,1-10,1.1C23,44,13.3,41.6,3.5,40.9c0.1,4.6,0.3,9.4,0,10.3c-0.4,1.6,10.5,4,14.6,3.9
	c4.1,1,20.7-1.2,22.5-2.9c1.9-1.3,2.3-2.6,2.2-3.8C42.6,47.3,42.8,44.1,42.9,42.6z"/>
<path class="st2" d="M11.2,49.3c4.2,1,8.6,1.5,12.9,1.4c4.7-0.1,9.4-0.9,14-2.5c1.5-0.5,3-0.9,4.5-1.3c-0.1-1.3,0.1-4,0.2-5.4
	c-3.5,0.6-6.8,1.2-10,1.3c-9.9,0.4-19.6-2.3-29.4-3c0.1,2.6,0.1,5.1,0.1,7C6,47.8,8.6,48.7,11.2,49.3z"/>
<path class="st2" d="M7,42.7c0-0.6,0.1-1,0.3-1.5C6,41,4.7,40.9,3.4,40.8c0.1,4.6,0.3,9.4,0,10.3c-0.2,0.5,1.6,1.6,4,1.2
	C7.2,49.1,7.1,45.9,7,42.7z"/>
<path class="st2" d="M42.6,48.3c-0.1-1,0.1-4.2,0.2-5.7c-3,0.4-6,0.6-8.9,0.6c0.1,0.2,0.1,0.3,0.1,0.5c0,2.8-0.1,5.6-0.1,8.4
	c3.2,0.8,5.9,0.2,6.6-0.2C42.4,50.9,42.8,49.6,42.6,48.3z"/>
<path class="st2" d="M54,23.3c-0.4-2.6-6-5.2-15.2-5.9c0.1,1.3,0.3,2.6,0.3,3.9c3.6,0.3,9.3,1.5,9.3,3.5c0,2.4,0.9,9.2,0,10.9
	c-0.7,1.3-7,1.5-8.5,1.5c0.2,2,0.4,4.2,0.6,6.2c0.1-0.5,0.1-0.8,0.1-0.8s1.7-0.2,6.5-1.3c4.8-1.2,6.5-6,7-9.7
	C54.4,27.8,54.4,26.2,54,23.3z"/>
<g>
	<path class="st1" d="M40,37.8c2.2-0.1,5.9-0.4,6.8-1.3c-2.2,0.6-5.8,0.6-6.9,0.7C39.9,37.4,39.9,37.6,40,37.8z"/>
	<path class="st1" d="M54,23.3c-0.4-2.6-6-5.2-15.2-5.9c0,0.3,0.1,0.5,0.1,0.8c8.3,0.8,13.4,3.3,13.7,5.8c0.4,2.9,0.4,4.6,0,8.3
		c-0.4,3.1-1.7,7-4.9,8.8c4.3-1.4,5.9-6,6.3-9.5C54.4,27.8,54.4,26.2,54,23.3z"/>
	<path class="st1" d="M40.5,43c0,0.1,0,0.3,0.1,0.4C40.5,43.2,40.5,43.1,40.5,43C40.5,43,40.5,43,40.5,43z"/>
</g>
<path class="st1" d="M46.5,38.7c-1.4,0.6-3.6,1-6.5,1c0.1,0.8,0.1,1.5,0.3,2.3c1-0.2,2.5-0.5,4.6-1c0.6-0.1,1.2-0.4,1.7-0.7
	C46.5,39.8,46.5,39.3,46.5,38.7z"/>
<path class="st1" d="M50.6,24.2c-0.2-1.4-4-3.6-11.7-4.5c0,0.3,0.1,0.6,0.1,1c3.1,0.4,9.4,1.6,9.4,4.7c0,0.6,0.1,1.7,0.1,2.9
	c0.1,0.9,0.1,1.7,0.1,2.6c0.3,2.1,0.3,4.3,0.3,6.4c1-1.9,1.4-3.9,1.5-5.1C51,28.5,51,26.9,50.6,24.2z"/>
<path class="st2" d="M25.6,43.2c0-0.1,0-0.2,0.1-0.3c-2.2-0.1-4.5-0.4-6.8-0.6c0,0.1,0,0.2,0,0.3c0,3.3,0.1,6.6,0.2,9.9
	c1.5,0.4,4,0.6,6.5-0.1C25.6,49.4,25.6,46.4,25.6,43.2z"/>
<path class="st3" d="M42.4,11h-1.9c0.1,1,0.1,2,0.1,3.1c0,4.1-0.7,8.2-0.5,12.2c0.3,7.1,0.3,13.3,0.3,20.1c0.4,0,0.9,0,1.3,0
	c0.3-0.1,0.6-0.1,0.9-0.1c0.1-0.1,0.1-0.2,0.1-0.3C42.7,34.1,42.7,15.5,42.4,11z"/>
<g>
	<path class="st4" d="M3,11c0,0,0.5,14,0.3,18.9c-0.2,4,0.1,10.9,0.1,14.7c1.1,3.1,10.2,4.7,10.6,4.5c6.5,1,13.1,0.1,19.6-0.8
		c2.8-0.4,5.5-1.1,8.2-1.8c0.3-0.1,0.6-0.3,1-0.4c0.1-0.1,0.1-0.3,0.1-0.4c-0.1-11.8-0.3-30.4-0.6-34.9C29.1,11,16.1,11,3,11L3,11z"
		/>
	<path class="st3" d="M32.6,47.6c8.4-1.7,6.7-9.8,6.8-12.1c0.3-8,0.3-16.2,0.5-24.5c0.8,0,1.7,0,2.4,0c0,0-0.4,14.1-0.3,19
		c0.2,4-0.2,12.3-0.1,16.1c-1.3,0.4-2.6,0.8-4,1.3C38.2,46.4,32.6,48.7,32.6,47.6z"/>
</g>
<path class="st5" d="M15.8,14.4c-2.3-0.1-4.5-0.1-6.8-0.3c-0.5,9.1,0.3,23.9,0.8,31.2c2.2,0.8,7.4,2,6.8,0
	C16.1,43.9,16.2,17.3,15.8,14.4z"/>
<path class="st5" d="M29.5,11.5c-1.5,0.2-2.9,0.4-4.4,0.5c-0.6,10.4,0.5,26.6,0.6,33.9c1.5,0.3,3,0.3,4.5,0
	C30.5,41.6,29.8,13.9,29.5,11.5z"/>
<g id="foam_2_">
	<path class="st1" d="M28.1,12.8c4.4-0.4,13.3-0.6,13.5,1.3c0.3,2.4,3,3.5,3.1,1.5c0.1-2.3,2.6-7-7.6-10.7c-10.3-2.7-8.6-1.7-14.1-2
		c-5.6,0.1-2.9-5.7-13.9-1c-10.7,5.8-11,12-6.1,12.7c5.1,0.2,8.4,2.1,12.7,2.1C20,16.7,24.3,13,28.1,12.8z"/>
	<path class="st2" d="M42.3,14.1c-0.3-0.7-0.5-2.6-1.3-3.4c-2.3-2.3-6-3.5-9.3-3.7c-4.7-0.6-9.3,0.3-14,1.9
		c-4.1,1.4-8.3,2.2-12.2,0.9C3.8,9.2,2.5,8.2,1.8,6.9c-2.9,4.3-2,6.8,1.3,7.3c5.1-0.1,8.4,2.2,12.7,2.1c4.3-0.1,8.7-4.4,12.4-4.5
		c4.4-0.3,13.2,0.5,13.4,2.2c0.1,0.8,0.6,1.5,1.2,1.9C42.6,15.3,42.6,14.7,42.3,14.1z"/>
</g>
</svg>
