<?xml version="1.0" encoding="utf-8"?>
<!-- Generator: Adobe Illustrator 19.2.0, SVG Export Plug-In . SVG Version: 6.00 Build 0)  -->
<svg version="1.1" id="Layer_1" xmlns="http://www.w3.org/2000/svg" xmlns:xlink="http://www.w3.org/1999/xlink" x="0px" y="0px"
	 viewBox="0 0 612 792" style="enable-background:new 0 0 612 792;" xml:space="preserve">
<style type="text/css">
	.st0{fill:#D4A436;}
	.st1{fill:#F6EEDC;}
	.st2{fill:#E2D7BD;}
	.st3{fill:#D88430;}
	.st4{fill:#EB9F42;}
	.st5{fill:#EAB96C;}
</style>
<g id="beer">
	<path class="st0" d="M478.6,626.4c0,33.4-90.5,58.4-207.4,60.3C155,691.9,64.5,666.8,62.6,633.4c-1.3-12.8,91.8-27.6,206.7-32.7
		C385.5,599.4,479.2,612.9,478.6,626.4z"/>
	<path class="st1" d="M468.9,533.3c-34.7,5.8-68.7,9.6-100.8,10.9C269.3,547.4,171.7,523,73.5,516c0.6,46.2,2.6,94.4,0,103.4
		c-4.5,16,105.3,39.8,146.4,39.2c41.1,9.6,207.4-11.6,225.3-29.5c19.3-12.8,23.1-25.7,21.8-37.9
		C465.7,580.8,467.7,548.7,468.9,533.3z"/>
	<path class="st2" d="M151.2,600.7c42.4,9.6,86,15.4,129,14.1c47.5-1.3,94.4-9,140.6-25c14.8-5.1,30.2-9,45.6-12.8
		c-0.6-12.8,1.3-39.8,1.9-53.9c-34.7,6.4-68.7,11.6-100.8,12.8c-99.5,4.5-197.1-23.1-295.3-30.2c0.6,25.7,1.3,51.4,1.3,70.6
		C99.2,585.3,124.8,594.9,151.2,600.7z"/>
	<path class="st2" d="M108.8,533.9c0-5.8,0.6-10.3,2.6-15.4c-12.8-1.3-25.7-2.6-38.5-3.2c0.6,46.2,2.6,94.4,0,103.4
		c-1.9,5.1,16,16,39.8,11.6C110.7,598.8,109.4,566.7,108.8,533.9z"/>
	<path class="st2" d="M466.4,590.4c-1.3-9.6,0.6-42.4,1.9-57.1c-30.2,3.9-60.3,6.4-89.2,6.4c0.6,1.9,0.6,3.2,0.6,5.1
		c0,28.2-0.6,56.5-1.3,84.1c32.1,7.7,59.1,1.9,66.1-1.9C463.8,616.8,468.3,603.3,466.4,590.4z"/>
	<path class="st2" d="M580,339.4c-3.9-25.7-60.3-52.6-152.8-59.1c1.3,12.8,2.6,25.7,3.2,39.2c36,3.2,93.7,14.8,93.7,34.7
		c0,24.4,9,91.8,0,109.8c-7.1,13.5-70.6,15.4-85.4,15.4c1.9,20.5,3.9,41.7,6.4,62.3c0.6-5.1,0.6-8.3,0.6-8.3s16.7-1.9,64.8-12.8
		c48.1-11.6,65.5-59.7,70-96.9C584.5,385,584.5,368.3,580,339.4z"/>
	<g>
		<path class="st1" d="M439.4,485.2c22.5-0.6,59.1-3.9,68.7-12.8c-21.8,5.8-58.4,6.4-69.3,7.1C438.8,480.7,438.8,483.2,439.4,485.2z
			"/>
		<path class="st1" d="M580,339.4c-3.9-25.7-60.3-52.6-152.8-59.1c0,2.6,0.6,5.1,0.6,7.7c83.5,8.3,134.2,33.4,137.4,57.8
			c4.5,28.9,4.5,46.2,0,83.5c-3.9,30.8-16.7,70-48.8,88.6c43-14.1,59.1-59.7,63.6-95C584.5,385,584.5,368.3,580,339.4z"/>
		<path class="st1" d="M444.5,537.2c0,1.3,0,2.6,0.6,3.9c0-1.3,0-2.6,0-3.9C445.2,537.2,445.2,537.2,444.5,537.2z"/>
	</g>
	<path class="st1" d="M505.5,494.1c-14.1,5.8-36,9.6-65.5,10.3c0.6,7.7,1.3,15.4,2.6,23.1c9.6-1.9,25-5.1,46.2-9.6
		c6.4-1.3,12.2-3.9,17.3-7.1C505.5,505.1,505.5,499.9,505.5,494.1z"/>
	<path class="st1" d="M546,348.4c-1.9-14.1-40.4-36.6-117.5-44.9c0,3.2,0.6,6.4,0.6,10.3c31.5,3.9,94.4,16,94.4,47.5
		c0,6.4,0.6,17.3,1.3,28.9c0.6,9,1.3,17.3,1.3,25.7c3.2,21.2,3.2,43,3.2,64.2c10.3-18.6,14.1-39.2,15.4-51.4
		C550.5,392.1,550.5,376,546,348.4z"/>
	<path class="st2" d="M295,539.7c0-1.3,0-1.9,0.6-3.2c-22.5-1.3-45.6-3.9-68-5.8c0,0.6,0,1.9,0,2.6c0,33.4,0.6,66.1,1.9,98.9
		c14.8,3.9,39.8,6.4,65.5-1.3C295.6,601.3,295.6,571.2,295,539.7z"/>
	<path class="st3" d="M463.8,216.2h-18.6c0.6,10.3,0.6,20.5,1.3,31.5c0,41.1-7.1,82.2-5.1,122c3.2,71.3,3.2,133.5,3.2,201.6
		c4.5,0,9,0,12.8,0c3.2-0.6,5.8-0.6,9-0.6c0.6-1.3,0.6-1.9,1.3-3.2C467,447.9,467,261.7,463.8,216.2z"/>
	<g>
		<path class="st4" d="M69,216.2c0,0,5.1,140.6,2.6,190C69.6,446,72.8,516,72.2,553.8c10.9,31.5,102.1,46.9,105.9,45.6
			c65.5,9.6,131,1.3,196.4-7.7c27.6-3.9,55.2-10.9,82.2-18c3.2-1.3,6.4-2.6,9.6-3.9c0.6-1.3,0.6-2.6,1.3-3.9
			c-1.3-118.1-2.6-304.9-6.4-350.5C330.9,216.2,199.9,216.2,69,216.2L69,216.2z"/>
		<path class="st3" d="M365.6,583.4C449.7,566,433,485.2,434.3,462c2.6-80.2,3.2-162.4,5.1-245.9c8.3,0,16.7,0,24.4,0
			c0,0-4.5,141.2-2.6,190.7c1.9,39.8-1.9,123.3-0.6,161.1c-12.8,3.9-26.3,8.3-39.8,13.5C421.4,571.2,365.6,594.3,365.6,583.4z"/>
	</g>
	<path class="st5" d="M197.4,250.8c-23.1-0.6-45.6-1.3-68.7-2.6c-5.1,91.2,3.2,239.5,8.3,313.3c22.5,8.3,74.5,19.9,68,0
		C199.9,546.8,201.2,279.1,197.4,250.8z"/>
	<path class="st5" d="M334.8,221.3c-14.8,1.9-29.5,3.9-44.3,5.1c-6.4,104.6,5.1,266.4,5.8,340.2c14.8,3.2,30.2,3.2,44.9,0
		C344.4,523.7,338,245.1,334.8,221.3z"/>
	<path class="st1" d="M320.6,234.1c44.3-3.9,133.5-5.8,135.5,13.5c2.6,23.8,30.2,35.3,31.5,15.4c0.6-23.1,25.7-70.6-75.8-107.2
		c-103.4-27-86-17.3-141.9-20.5c-56.5,1.3-29.5-57.1-139.3-9.6c-107.2,58.4-110.4,120.7-61,127.1c50.7,1.9,84.1,21.2,127.1,21.2
		C239.1,273.3,282.8,236.7,320.6,234.1z"/>
	<path class="st2" d="M463.2,247.6c-2.6-7.1-5.1-26.3-12.8-34c-23.1-23.1-60.3-34.7-93.1-37.2c-47.5-6.4-93.1,3.2-140.6,18.6
		c-41.1,14.1-82.8,22.5-122,9c-18-5.8-30.8-16-38.5-28.9c-28.9,43-20.5,68,12.8,73.2c50.7-0.6,84.1,21.8,127.1,21.2
		c43-1.3,87.3-44.3,124.5-45.6c44.3-3.2,132.9,5.1,134.8,21.8c1.3,8.3,6.4,15.4,12.2,18.6C466.4,259.2,465.7,253.4,463.2,247.6z"/>
</g>
</svg>
