<?xml version="1.0" encoding="utf-8"?>
<!-- Generator: Adobe Illustrator 19.2.0, SVG Export Plug-In . SVG Version: 6.00 Build 0)  -->
<svg version="1.1" id="Layer_1" xmlns="http://www.w3.org/2000/svg" xmlns:xlink="http://www.w3.org/1999/xlink" x="0px" y="0px"
	 viewBox="0 0 612 792" style="enable-background:new 0 0 612 792;" xml:space="preserve">
<style type="text/css">
	.st0{fill:#D2A830;}
	.st1{fill:none;stroke:#D2A830;}
	.st2{fill:none;stroke:#D2A830;stroke-width:2;}
	.st3{fill:#EAB83D;}
	.st4{fill:#FFFFFF;}
	.st5{font-family:'ArialMT';}
	.st6{font-size:28.2251px;}
	.st7{fill:none;}
	.st8{fill:#D3A337;}
	.st9{fill:#F6EEDB;}
	.st10{fill:#E2D6BC;}
	.st11{fill:#D88430;}
	.st12{fill:#EA9E42;}
	.st13{fill:#EAB96C;}
</style>
<g id="wheat">
	<path id="path2230" class="st0" d="M65.3,66.6c0,0-0.5-8.4,3.5-10.5c4.7-2.5,7.5-3.9,7.5-3.9c-0.3,3.2,0.4,9.1-3.9,11.2
		C69.3,64.8,69.3,64.8,65.3,66.6"/>
	<path id="path3202" class="st0" d="M65.3,56c0,0-0.5-8.4,3.5-10.5c4.7-2.5,7.5-3.9,7.5-3.9c-0.3,3.2,0.4,9.1-3.9,11.2
		C69.3,54.2,69.3,54.2,65.3,56"/>
	<path id="path3204" class="st0" d="M65.3,45.4c0,0-0.5-8.4,3.5-10.5c4.7-2.5,7.5-3.9,7.5-3.9c-0.3,3.2,0.4,9.1-3.9,11.2
		C69.3,43.6,69.3,43.6,65.3,45.4"/>
	<path id="path3206" class="st0" d="M65.3,34.8c0,0-0.5-8.4,3.5-10.5c4.7-2.5,7.5-3.9,7.5-3.9c-0.3,3.2,0.4,9.1-3.9,11.2
		C69.3,33,69.3,33,65.3,34.8"/>
	<path id="path3208" class="st0" d="M64.3,66.6c0,0,0.5-8.4-3.5-10.5c-4.7-2.5-7.5-3.9-7.5-3.9c0.3,3.2-0.4,9.1,3.9,11.2
		C60.2,64.8,60.2,64.8,64.3,66.6"/>
	<path id="path3210" class="st0" d="M64.3,56c0,0,0.5-8.4-3.5-10.5c-4.7-2.5-7.5-3.9-7.5-3.9c0.3,3.2-0.4,9.1,3.9,11.2
		C60.2,54.2,60.2,54.2,64.3,56"/>
	<path id="path3212" class="st0" d="M64.3,45.4c0,0,0.5-8.4-3.5-10.5c-4.7-2.5-7.5-3.9-7.5-3.9c0.3,3.2-0.4,9.1,3.9,11.2
		C60.2,43.6,60.2,43.6,64.3,45.4"/>
	<path id="path3214" class="st0" d="M64.3,34.8c0,0,0.5-8.4-3.5-10.5c-4.7-2.5-7.5-3.9-7.5-3.9c0.3,3.2-0.4,9.1,3.9,11.2
		C60.2,33,60.2,33,64.3,34.8"/>
	<path id="path3216" class="st1" d="M63.8,4.7v20"/>
	<path id="path3218" class="st2" d="M54.3,4.5v16.8"/>
	<path id="path3221" class="st2" d="M75.3,4.5v16.8"/>
	<path id="path3223" class="st1" d="M65.8,4.7v20"/>
</g>
<g id="beer">
	<rect x="505.5" y="1143" class="st3" width="17" height="110"/>
	<polyline class="st3" points="509.3,1190.1 497,1199.5 514.6,1210.4 	"/>
</g>
<g id="heart">
	<path d="M64.8,255.5c0,0-14-7.9-14-17c0-9.4,13.2-10.4,14-0.5c1-9.9,14-8.9,14,0.5C78.8,247.6,64.8,255.5,64.8,255.5z"/>
</g>
<g id="beer-title">
	<text transform="matrix(1 0 0 1 146.5708 296.5059)" class="st4 st5 st6">BEER</text>
</g>
<rect x="73.9" y="423.4" class="st7" width="187" height="68"/>
<g>
	<path class="st8" d="M97.1,179.9c0,5.2-14.1,9.1-32.3,9.4c-18.1,0.8-32.2-3.1-32.5-8.3c-0.2-2,14.3-4.3,32.2-5.1
		C82.6,175.7,97.2,177.8,97.1,179.9z"/>
	<path class="st9" d="M95.6,165.4c-5.4,0.9-10.7,1.5-15.7,1.7c-15.4,0.5-30.6-3.3-45.9-4.4c0.1,7.2,0.4,14.7,0,16.1
		c-0.7,2.5,16.4,6.2,22.8,6.1c6.4,1.5,32.3-1.8,35.1-4.6c3-2,3.6-4,3.4-5.9C95.1,172.8,95.4,167.8,95.6,165.4z"/>
	<path class="st10" d="M46.1,175.9c6.6,1.5,13.4,2.4,20.1,2.2c7.4-0.2,14.7-1.4,21.9-3.9c2.3-0.8,4.7-1.4,7.1-2
		c-0.1-2,0.2-6.2,0.3-8.4c-5.4,1-10.7,1.8-15.7,2c-15.5,0.7-30.7-3.6-46-4.7c0.1,4,0.2,8,0.2,11C38,173.5,42,175,46.1,175.9z"/>
	<path class="st10" d="M39.5,165.5c0-0.9,0.1-1.6,0.4-2.4c-2-0.2-4-0.4-6-0.5c0.1,7.2,0.4,14.7,0,16.1c-0.3,0.8,2.5,2.5,6.2,1.8
		C39.8,175.6,39.6,170.6,39.5,165.5z"/>
	<path class="st10" d="M95.2,174.3c-0.2-1.5,0.1-6.6,0.3-8.9c-4.7,0.6-9.4,1-13.9,1c0.1,0.3,0.1,0.5,0.1,0.8c0,4.4-0.1,8.8-0.2,13.1
		c5,1.2,9.2,0.3,10.3-0.3C94.8,178.4,95.5,176.3,95.2,174.3z"/>
	<path class="st10" d="M112.9,135.2c-0.6-4-9.4-8.2-23.8-9.2c0.2,2,0.4,4,0.5,6.1c5.6,0.5,14.6,2.3,14.6,5.4c0,3.8,1.4,14.3,0,17.1
		c-1.1,2.1-11,2.4-13.3,2.4c0.3,3.2,0.6,6.5,1,9.7c0.1-0.8,0.1-1.3,0.1-1.3s2.6-0.3,10.1-2c7.5-1.8,10.2-9.3,10.9-15.1
		C113.6,142.3,113.6,139.7,112.9,135.2z"/>
	<g>
		<path class="st9" d="M91,157.9c3.5-0.1,9.2-0.6,10.7-2c-3.4,0.9-9.1,1-10.8,1.1C90.9,157.2,90.9,157.6,91,157.9z"/>
		<path class="st9" d="M112.9,135.2c-0.6-4-9.4-8.2-23.8-9.2c0,0.4,0.1,0.8,0.1,1.2c13,1.3,20.9,5.2,21.4,9c0.7,4.5,0.7,7.2,0,13
			c-0.6,4.8-2.6,10.9-7.6,13.8c6.7-2.2,9.2-9.3,9.9-14.8C113.6,142.3,113.6,139.7,112.9,135.2z"/>
		<path class="st9" d="M91.8,166c0,0.2,0,0.4,0.1,0.6c0-0.2,0-0.4,0-0.6C91.9,166,91.9,166,91.8,166z"/>
	</g>
	<path class="st9" d="M101.3,159.3c-2.2,0.9-5.6,1.5-10.2,1.6c0.1,1.2,0.2,2.4,0.4,3.6c1.5-0.3,3.9-0.8,7.2-1.5
		c1-0.2,1.9-0.6,2.7-1.1C101.3,161,101.3,160.2,101.3,159.3z"/>
	<path class="st9" d="M107.6,136.6c-0.3-2.2-6.3-5.7-18.3-7c0,0.5,0.1,1,0.1,1.6c4.9,0.6,14.7,2.5,14.7,7.4c0,1,0.1,2.7,0.2,4.5
		c0.1,1.4,0.2,2.7,0.2,4c0.5,3.3,0.5,6.7,0.5,10c1.6-2.9,2.2-6.1,2.4-8C108.3,143.4,108.3,140.9,107.6,136.6z"/>
	<path class="st10" d="M68.5,166.4c0-0.2,0-0.3,0.1-0.5c-3.5-0.2-7.1-0.6-10.6-0.9c0,0.1,0,0.3,0,0.4c0,5.2,0.1,10.3,0.3,15.4
		c2.3,0.6,6.2,1,10.2-0.2C68.6,176,68.6,171.3,68.5,166.4z"/>
	<path class="st11" d="M94.8,116h-2.9c0.1,1.6,0.1,3.2,0.2,4.9c0,6.4-1.1,12.8-0.8,19c0.5,11.1,0.5,20.8,0.5,31.4c0.7,0,1.4,0,2,0
		c0.5-0.1,0.9-0.1,1.4-0.1c0.1-0.2,0.1-0.3,0.2-0.5C95.3,152.1,95.3,123.1,94.8,116z"/>
	<g>
		<path class="st12" d="M33.3,116c0,0,0.8,21.9,0.4,29.6c-0.3,6.2,0.2,17.1,0.1,23c1.7,4.9,15.9,7.3,16.5,7.1
			c10.2,1.5,20.4,0.2,30.6-1.2c4.3-0.6,8.6-1.7,12.8-2.8c0.5-0.2,1-0.4,1.5-0.6c0.1-0.2,0.1-0.4,0.2-0.6c-0.2-18.4-0.4-47.5-1-54.6
			C74.1,116,53.7,116,33.3,116L33.3,116z"/>
		<path class="st11" d="M79.5,173.2c13.1-2.7,10.5-15.3,10.7-18.9c0.4-12.5,0.5-25.3,0.8-38.3c1.3,0,2.6,0,3.8,0
			c0,0-0.7,22-0.4,29.7c0.3,6.2-0.3,19.2-0.1,25.1c-2,0.6-4.1,1.3-6.2,2.1C88.2,171.3,79.5,174.9,79.5,173.2z"/>
	</g>
	<path class="st13" d="M53.3,121.4c-3.6-0.1-7.1-0.2-10.7-0.4c-0.8,14.2,0.5,37.3,1.3,48.8c3.5,1.3,11.6,3.1,10.6,0
		C53.7,167.5,53.9,125.8,53.3,121.4z"/>
	<path class="st13" d="M74.7,116.8c-2.3,0.3-4.6,0.6-6.9,0.8c-1,16.3,0.8,41.5,0.9,53c2.3,0.5,4.7,0.5,7,0
		C76.2,163.9,75.2,120.5,74.7,116.8z"/>
	<path class="st9" d="M72.5,118.8c6.9-0.6,20.8-0.9,21.1,2.1c0.4,3.7,4.7,5.5,4.9,2.4c0.1-3.6,4-11-11.8-16.7
		c-16.1-4.2-13.4-2.7-22.1-3.2c-8.8,0.2-4.6-8.9-21.7-1.5c-16.7,9.1-17.2,18.8-9.5,19.8c7.9,0.3,13.1,3.3,19.8,3.3
		C59.8,124.9,66.6,119.2,72.5,118.8z"/>
	<path class="st10" d="M94.7,120.9c-0.4-1.1-0.8-4.1-2-5.3c-3.6-3.6-9.4-5.4-14.5-5.8c-7.4-1-14.5,0.5-21.9,2.9
		c-6.4,2.2-12.9,3.5-19,1.4c-2.8-0.9-4.8-2.5-6-4.5c-4.5,6.7-3.2,10.6,2,11.4c7.9-0.1,13.1,3.4,19.8,3.3c6.7-0.2,13.6-6.9,19.4-7.1
		c6.9-0.5,20.7,0.8,21,3.4c0.2,1.3,1,2.4,1.9,2.9C95.2,122.7,95.1,121.8,94.7,120.9z"/>
</g>
</svg>
