<?xml version="1.0" encoding="utf-8"?>
<!-- Generator: Adobe Illustrator 19.2.0, SVG Export Plug-In . SVG Version: 6.00 Build 0)  -->
<svg version="1.1" id="Layer_1" xmlns="http://www.w3.org/2000/svg" xmlns:xlink="http://www.w3.org/1999/xlink" x="0px" y="0px"
	 viewBox="0 0 28 64" style="enable-background:new 0 0 28 64;" xml:space="preserve">
<style type="text/css">
	.st0{fill:#D2A830;}
	.st1{fill:none;stroke:#D2A830;}
	.st2{fill:none;stroke:#D2A830;stroke-width:2;}
</style>
<g id="wheat">
	<path id="path2230" class="st0" d="M14.9,63.8c0,0-0.5-8.4,3.5-10.5c4.7-2.5,7.5-3.9,7.5-3.9c-0.3,3.2,0.4,9.1-3.9,11.2
		C18.9,62,18.9,62,14.9,63.8"/>
	<path id="path3202" class="st0" d="M14.9,53.2c0,0-0.5-8.4,3.5-10.5c4.7-2.5,7.5-3.9,7.5-3.9c-0.3,3.2,0.4,9.1-3.9,11.2
		C18.9,51.4,18.9,51.4,14.9,53.2"/>
	<path id="path3204" class="st0" d="M14.9,42.6c0,0-0.5-8.4,3.5-10.5c4.7-2.5,7.5-3.9,7.5-3.9c-0.3,3.2,0.4,9.1-3.9,11.2
		C18.9,40.8,19,40.8,14.9,42.6"/>
	<path id="path3206" class="st0" d="M14.9,32c0,0-0.5-8.4,3.5-10.5c4.7-2.5,7.5-3.9,7.5-3.9c-0.3,3.2,0.4,9.1-3.9,11.2
		C18.9,30.2,18.9,30.2,14.9,32"/>
	<path id="path3208" class="st0" d="M13.9,63.8c0,0,0.5-8.4-3.5-10.5c-4.7-2.5-7.5-3.9-7.5-3.9c0.3,3.2-0.4,9.1,3.9,11.2
		C9.9,62,9.8,62,13.9,63.8"/>
	<path id="path3210" class="st0" d="M13.9,53.2c0,0,0.5-8.4-3.5-10.5c-4.7-2.5-7.5-3.9-7.5-3.9c0.3,3.2-0.4,9.1,3.9,11.2
		C9.9,51.4,9.8,51.4,13.9,53.2"/>
	<path id="path3212" class="st0" d="M13.9,42.6c0,0,0.5-8.4-3.5-10.5c-4.7-2.5-7.5-3.9-7.5-3.9c0.3,3.2-0.4,9.1,3.9,11.2
		C9.8,40.8,9.8,40.8,13.9,42.6"/>
	<path id="path3214" class="st0" d="M13.9,32c0,0,0.5-8.4-3.5-10.5c-4.7-2.5-7.5-3.9-7.5-3.9c0.3,3.2-0.4,9.1,3.9,11.2
		C9.9,30.2,9.8,30.2,13.9,32"/>
	<path id="path3216" class="st1" d="M13.4,1.9v20"/>
	<path id="path3218" class="st2" d="M3.9,1.8v16.8"/>
	<path id="path3221" class="st2" d="M24.9,1.8v16.8"/>
	<path id="path3223" class="st1" d="M15.4,1.9v20"/>
</g>
</svg>
